<svg width="26" height="26" viewBox="0 0 26 26" fill="none" xmlns="http://www.w3.org/2000/svg">
<path d="M2.16675 12.9999C2.16675 8.14838 2.16675 5.72262 3.67392 4.21543C5.18111 2.70825 7.60688 2.70825 12.4584 2.70825C17.3099 2.70825 19.7357 2.70825 21.2429 4.21543C22.7501 5.72262 22.7501 8.14838 22.7501 12.9999C22.7501 17.8514 22.7501 20.2772 21.2429 21.7845C19.7357 23.2916 17.3099 23.2916 12.4584 23.2916C7.60688 23.2916 5.18111 23.2916 3.67392 21.7845C2.16675 20.2772 2.16675 17.8514 2.16675 12.9999Z" stroke="#334BEB" stroke-width="1.625" stroke-linejoin="round"/>
<path d="M13.3942 8.36552L14.3474 10.2877C14.4774 10.5553 14.8241 10.812 15.1165 10.8611L16.8443 11.1506C17.9492 11.3362 18.2091 12.1444 17.4129 12.9416L16.0697 14.296C15.8423 14.5254 15.7177 14.9677 15.7881 15.2843L16.1726 16.9608C16.476 18.2879 15.7773 18.8012 14.6128 18.1076L12.9935 17.1411C12.701 16.9663 12.2189 16.9663 11.9211 17.1411L10.3016 18.1076C9.1426 18.8012 8.43851 18.2824 8.74181 16.9608L9.12635 15.2843C9.19677 14.9677 9.0722 14.5254 8.84472 14.296L7.50154 12.9416C6.71079 12.1444 6.96534 11.3362 8.07022 11.1506L9.79796 10.8611C10.085 10.812 10.4316 10.5553 10.5616 10.2877L11.5148 8.36552C12.0348 7.3225 12.8797 7.3225 13.3942 8.36552Z" stroke="#334BEB" stroke-width="1.625" stroke-linecap="round" stroke-linejoin="round"/>
</svg>
