<svg width="26" height="26" viewBox="0 0 26 26" fill="none" xmlns="http://www.w3.org/2000/svg">
<path d="M9.34707 13.7297H8.84986C7.24249 13.7297 6.4388 13.7297 6.09622 13.1998C5.75365 12.6699 6.08006 11.9316 6.73288 10.4551L8.69549 6.016C9.28903 4.6735 9.58581 4.00224 10.1616 3.62612C10.7373 3.25 11.468 3.25 12.9295 3.25H15.193C16.9684 3.25 17.8561 3.25 18.1908 3.82996C18.5257 4.40993 18.0853 5.1847 17.2044 6.73425L16.0432 8.77704C15.6053 9.54736 15.3864 9.93253 15.3894 10.2478C15.3934 10.6576 15.6113 11.0351 15.9633 11.2418C16.2341 11.4009 16.6753 11.4009 17.5579 11.4009C18.6737 11.4009 19.2316 11.4009 19.5221 11.5941C19.8996 11.845 20.0972 12.2939 20.0279 12.7435C19.9746 13.0895 19.5994 13.5044 18.8488 14.3343L12.8525 20.965C11.6747 22.2674 11.0858 22.9186 10.6903 22.7125C10.2949 22.5064 10.4848 21.6474 10.8646 19.9292L11.6086 16.5637C11.8977 15.2555 12.0424 14.6014 11.6946 14.1656C11.3469 13.7297 10.6803 13.7297 9.34707 13.7297Z" stroke="#334BEB" stroke-width="1.625" stroke-linejoin="round"/>
</svg>
