<svg width="82" height="18" viewBox="0 0 82 18" fill="none" xmlns="http://www.w3.org/2000/svg">
<path d="M0.632 17V0.0559993H4.4V17H0.632ZM3.512 10.352V7.112H11.984V10.352H3.512ZM3.512 3.296V0.0559993H12.368V3.296H3.512ZM24.6412 17V0.295999H28.4092V17H24.6412ZM19.3372 3.344V0.0559993H33.7132V3.344H19.3372ZM42.6425 17.264C42.0185 17.264 41.4985 17.048 41.0825 16.616C40.6665 16.184 40.4585 15.664 40.4585 15.056C40.4585 14.416 40.6665 13.888 41.0825 13.472C41.4985 13.04 42.0185 12.824 42.6425 12.824C43.2825 12.824 43.8025 13.04 44.2025 13.472C44.6185 13.888 44.8265 14.416 44.8265 15.056C44.8265 15.664 44.6185 16.184 44.2025 16.616C43.8025 17.048 43.2825 17.264 42.6425 17.264Z" fill="white"/>
<path d="M52.8378 17L59.5578 0.0559993H62.9658L69.6138 17H65.6298L60.5418 2.936H61.9098L56.7498 17H52.8378ZM56.6538 13.928V10.856H65.8938V13.928H56.6538ZM77.6467 17V0.0559993H81.4147V17H77.6467Z" fill="#F6E500"/>
</svg>
