<svg width="25" height="24" viewBox="0 0 25 24" fill="none" xmlns="http://www.w3.org/2000/svg">
<path d="M12.5 22C18.0228 22 22.5 17.5228 22.5 12C22.5 6.47715 18.0228 2 12.5 2C6.97715 2 2.5 6.47715 2.5 12C2.5 17.5228 6.97715 22 12.5 22Z" fill="#334BEB" fill-opacity="0.1"/>
<path fill-rule="evenodd" clip-rule="evenodd" d="M12.5 2.75C7.39137 2.75 3.25 6.89137 3.25 12C3.25 17.1086 7.39137 21.25 12.5 21.25C17.6086 21.25 21.75 17.1086 21.75 12C21.75 6.89137 17.6086 2.75 12.5 2.75ZM1.75 12C1.75 6.06294 6.56294 1.25 12.5 1.25C18.4371 1.25 23.25 6.06294 23.25 12C23.25 17.9371 18.4371 22.75 12.5 22.75C6.56294 22.75 1.75 17.9371 1.75 12Z" fill="#334BEB"/>
<path fill-rule="evenodd" clip-rule="evenodd" d="M12.5 7.75C12.9142 7.75 13.25 8.08579 13.25 8.5V12.5C13.25 12.9142 12.9142 13.25 12.5 13.25C12.0858 13.25 11.75 12.9142 11.75 12.5V8.5C11.75 8.08579 12.0858 7.75 12.5 7.75Z" fill="#334BEB"/>
<path fill-rule="evenodd" clip-rule="evenodd" d="M11.5 15.5C11.5 14.9477 11.9477 14.5 12.5 14.5H12.509C13.0613 14.5 13.509 14.9477 13.509 15.5C13.509 16.0523 13.0613 16.5 12.509 16.5H12.5C11.9477 16.5 11.5 16.0523 11.5 15.5Z" fill="#334BEB"/>
</svg>
