<svg width="26" height="26" viewBox="0 0 26 26" fill="none" xmlns="http://www.w3.org/2000/svg">
<path d="M7.58325 19.5V17.3333M12.9999 19.5V16.25M18.4166 19.5V14.0833M2.70825 13C2.70825 8.14844 2.70825 5.72268 4.21543 4.21549C5.72262 2.70831 8.14838 2.70831 12.9999 2.70831C17.8514 2.70831 20.2772 2.70831 21.7845 4.21549C23.2916 5.72268 23.2916 8.14844 23.2916 13C23.2916 17.8515 23.2916 20.2773 21.7845 21.7845C20.2772 23.2916 17.8514 23.2916 12.9999 23.2916C8.14838 23.2916 5.72262 23.2916 4.21543 21.7845C2.70825 20.2773 2.70825 17.8515 2.70825 13Z" stroke="#334BEB" stroke-width="1.625" stroke-linecap="round" stroke-linejoin="round"/>
<path fill-rule="evenodd" clip-rule="evenodd" d="M17.4802 8.33102L17.6502 8.89273C17.7802 9.32222 18.2337 9.56501 18.6632 9.43502C19.0927 9.30503 19.3355 8.85148 19.2055 8.42199L18.6683 6.64701C18.6626 6.62827 18.6563 6.60974 18.6493 6.59146C18.5102 6.22892 18.2172 5.99851 17.995 5.87477C17.7684 5.74859 17.439 5.63459 17.0874 5.67936C17.0786 5.68048 17.0697 5.68176 17.0609 5.68317L15.0291 6.01019C14.5861 6.08149 14.2848 6.49845 14.3561 6.94148C14.4274 7.3845 14.8443 7.68585 15.2874 7.61454L16.0866 7.4859C13.2745 11.3756 8.69716 11.704 6.51852 11.6314C6.07004 11.6165 5.69436 11.9679 5.67941 12.4164C5.66447 12.8649 6.01593 13.2406 6.46441 13.2555C8.77913 13.3326 14.1802 13.0143 17.4802 8.33102Z" fill="#334BEB"/>
</svg>
