<svg width="14" height="8" viewBox="0 0 14 8" fill="none" xmlns="http://www.w3.org/2000/svg">
<path d="M13.5 4.5C13.7761 4.5 14 4.27614 14 4C14 3.72386 13.7761 3.5 13.5 3.5V4.5ZM0.146447 3.64645C-0.0488155 3.84171 -0.0488155 4.15829 0.146447 4.35355L3.32843 7.53553C3.52369 7.7308 3.84027 7.7308 4.03553 7.53553C4.2308 7.34027 4.2308 7.02369 4.03553 6.82843L1.20711 4L4.03553 1.17157C4.2308 0.976311 4.2308 0.659728 4.03553 0.464466C3.84027 0.269204 3.52369 0.269204 3.32843 0.464466L0.146447 3.64645ZM13.5 3.5H0.5V4.5H13.5V3.5Z" fill="#5A5A5A"/>
</svg>
