<svg width="26" height="26" viewBox="0 0 26 26" fill="none" xmlns="http://www.w3.org/2000/svg">
<path d="M13 13V19.5" stroke="#334BEB" stroke-width="1.625" stroke-linecap="round"/>
<path d="M13 19.5C11.1869 19.5 9.60881 20.5963 8.79409 22.2137C8.40496 22.9862 8.96334 23.8333 9.70529 23.8333H16.2946C17.0366 23.8333 17.5949 22.9862 17.2058 22.2137C16.3911 20.5963 14.813 19.5 13 19.5Z" stroke="#334BEB" stroke-width="1.625" stroke-linecap="round"/>
<path d="M5.41663 5.41675H4.31673C3.248 5.41675 2.71363 5.41675 2.38348 5.81816C2.05332 6.21956 2.15014 6.66905 2.34377 7.56803C2.71364 9.28518 3.5159 10.7938 4.60293 11.9167" stroke="#334BEB" stroke-width="1.625" stroke-linecap="round"/>
<path d="M20.5834 5.41675H21.6833C22.752 5.41675 23.2864 5.41675 23.6165 5.81816C23.9467 6.21956 23.8498 6.66905 23.6562 7.56803C23.2864 9.28518 22.4841 10.7938 21.3971 11.9167" stroke="#334BEB" stroke-width="1.625" stroke-linecap="round"/>
<path d="M13 13.0001C17.1881 13.0001 20.5833 9.62344 20.5833 5.45814C20.5833 5.34892 20.5809 5.24024 20.5764 5.13215C20.5301 4.04965 20.5069 3.5084 19.7733 2.83757C19.0397 2.16675 18.2267 2.16675 16.601 2.16675H9.39892C7.77316 2.16675 6.96029 2.16675 6.22666 2.83757C5.49301 3.50839 5.46987 4.04965 5.42358 5.13215C5.41896 5.24024 5.41663 5.34892 5.41663 5.45814C5.41663 9.62344 8.8118 13.0001 13 13.0001Z" stroke="#334BEB" stroke-width="1.625" stroke-linecap="round"/>
</svg>
