<svg width="26" height="26" viewBox="0 0 26 26" fill="none" xmlns="http://www.w3.org/2000/svg">
<path fill-rule="evenodd" clip-rule="evenodd" d="M6.5 1.41669C6.91421 1.41669 7.25 1.75247 7.25 2.16669V4.33335C7.25 4.74757 6.91421 5.08335 6.5 5.08335C6.08579 5.08335 5.75 4.74757 5.75 4.33335V2.16669C5.75 1.75247 6.08579 1.41669 6.5 1.41669ZM19.5 1.41669C19.9142 1.41669 20.25 1.75247 20.25 2.16669V4.33335C20.25 4.74757 19.9142 5.08335 19.5 5.08335C19.0858 5.08335 18.75 4.74757 18.75 4.33335V2.16669C18.75 1.75247 19.0858 1.41669 19.5 1.41669Z" fill="#334BEB"/>
<path fill-rule="evenodd" clip-rule="evenodd" d="M7.66663 14.0833C7.66663 13.531 8.11434 13.0833 8.66663 13.0833H8.67634C9.22863 13.0833 9.67634 13.531 9.67634 14.0833C9.67634 14.6356 9.22863 15.0833 8.67634 15.0833H8.66663C8.11434 15.0833 7.66663 14.6356 7.66663 14.0833ZM11.9951 14.0833C11.9951 13.531 12.4428 13.0833 12.9951 13.0833H13.0048C13.5571 13.0833 14.0048 13.531 14.0048 14.0833C14.0048 14.6356 13.5571 15.0833 13.0048 15.0833H12.9951C12.4428 15.0833 11.9951 14.6356 11.9951 14.0833ZM16.3235 14.0833C16.3235 13.531 16.7713 13.0833 17.3235 13.0833H17.3333C17.8856 13.0833 18.3333 13.531 18.3333 14.0833C18.3333 14.6356 17.8856 15.0833 17.3333 15.0833H17.3235C16.7713 15.0833 16.3235 14.6356 16.3235 14.0833ZM7.66663 18.4166C7.66663 17.8644 8.11434 17.4166 8.66663 17.4166H8.67634C9.22863 17.4166 9.67634 17.8644 9.67634 18.4166C9.67634 18.9689 9.22863 19.4166 8.67634 19.4166H8.66663C8.11434 19.4166 7.66663 18.9689 7.66663 18.4166ZM11.9951 18.4166C11.9951 17.8644 12.4428 17.4166 12.9951 17.4166H13.0048C13.5571 17.4166 14.0048 17.8644 14.0048 18.4166C14.0048 18.9689 13.5571 19.4166 13.0048 19.4166H12.9951C12.4428 19.4166 11.9951 18.9689 11.9951 18.4166Z" fill="#334BEB"/>
<path fill-rule="evenodd" clip-rule="evenodd" d="M3.04163 8.66669C3.04163 8.25247 3.37741 7.91669 3.79163 7.91669H22.2083C22.6225 7.91669 22.9583 8.25247 22.9583 8.66669C22.9583 9.0809 22.6225 9.41669 22.2083 9.41669H3.79163C3.37741 9.41669 3.04163 9.0809 3.04163 8.66669Z" fill="#334BEB"/>
<path d="M2.70837 13.2635C2.70837 8.5431 2.70837 6.18289 4.06484 4.71644C5.4213 3.25 7.60449 3.25 11.9709 3.25H14.0292C18.3956 3.25 20.5788 3.25 21.9353 4.71644C23.2917 6.18289 23.2917 8.5431 23.2917 13.2635V13.8199C23.2917 18.5403 23.2917 20.9004 21.9353 22.3669C20.5788 23.8333 18.3956 23.8333 14.0292 23.8333H11.9709C7.60449 23.8333 5.4213 23.8333 4.06484 22.3669C2.70837 20.9004 2.70837 18.5403 2.70837 13.8199V13.2635Z" stroke="#334BEB" stroke-width="1.5" stroke-linecap="round" stroke-linejoin="round"/>
<path fill-rule="evenodd" clip-rule="evenodd" d="M2.5 8.66669C2.5 8.25247 2.83579 7.91669 3.25 7.91669H22.75C23.1642 7.91669 23.5 8.25247 23.5 8.66669C23.5 9.0809 23.1642 9.41669 22.75 9.41669H3.25C2.83579 9.41669 2.5 9.0809 2.5 8.66669Z" fill="#334BEB"/>
</svg>
