<svg width="26" height="26" viewBox="0 0 26 26" fill="none" xmlns="http://www.w3.org/2000/svg">
<path d="M23.8333 13.0001C23.8333 18.9831 18.983 23.8334 13 23.8334C7.01687 23.8334 2.16663 18.9831 2.16663 13.0001C2.16663 7.01699 7.01687 2.16675 13 2.16675C18.983 2.16675 23.8333 7.01699 23.8333 13.0001Z" stroke="#334BEB" stroke-width="1.625"/>
<path d="M12.6834 10.1279C12.8722 9.98503 13.1279 9.98503 13.3167 10.1279L15.7571 11.9751C15.9459 12.118 16.0249 12.3713 15.9528 12.6026L15.0207 15.5914C14.9485 15.8225 14.7417 15.9791 14.5084 15.9791H11.4917C11.2584 15.9791 11.0516 15.8225 10.9794 15.5914L10.0473 12.6026C9.97517 12.3713 10.0542 12.118 10.2429 11.9751L12.6834 10.1279Z" stroke="#334BEB" stroke-width="1.625"/>
<path d="M13 9.75008V5.41675M16.25 11.9167L20.5833 10.2917M15.1666 16.2501L17.3333 19.5001M10.8333 15.7084L8.66663 18.4167M9.74996 12.4584L5.41663 11.3751" stroke="#334BEB" stroke-width="1.625" stroke-linecap="round" stroke-linejoin="round"/>
<path d="M9.74996 2.70825L13.0178 5.00753L16.25 2.70825M2.16663 13.8664L5.62955 11.3086L3.85173 7.28041M21.0928 20.4241L16.9171 19.6684L15.4543 23.8333M21.6989 6.7121L20.3704 10.1722L23.8333 12.7298M8.67737 23.1896L8.72233 18.597L4.33688 18.6441" stroke="#334BEB" stroke-width="1.625" stroke-linejoin="round"/>
</svg>
