<svg width="26" height="26" viewBox="0 0 26 26" fill="none" xmlns="http://www.w3.org/2000/svg">
<path fill-rule="evenodd" clip-rule="evenodd" d="M13.0001 2.97919C7.46573 2.97919 2.97925 7.46567 2.97925 13C2.97925 18.5344 7.46573 23.0209 13.0001 23.0209C18.5344 23.0209 23.0209 18.5344 23.0209 13C23.0209 7.46567 18.5344 2.97919 13.0001 2.97919ZM1.35425 13C1.35425 6.5682 6.56826 1.35419 13.0001 1.35419C19.4319 1.35419 24.6459 6.5682 24.6459 13C24.6459 19.4318 19.4319 24.6459 13.0001 24.6459C6.56826 24.6459 1.35425 19.4318 1.35425 13Z" fill="#334BEB"/>
<path fill-rule="evenodd" clip-rule="evenodd" d="M17.9079 8.09216C18.2252 8.40946 18.2252 8.92391 17.9079 9.24121L14.1493 12.9999L14.6578 13.5084C14.9751 13.8257 14.9751 14.3401 14.6579 14.6574C14.3406 14.9747 13.8261 14.9748 13.5088 14.6575L13.0002 14.1489L12.4913 14.6579C12.174 14.9752 11.6595 14.9752 11.3422 14.6579C11.0249 14.3406 11.0249 13.8261 11.3422 13.5088L11.8511 12.9999L9.71725 10.8662C9.39993 10.5489 9.39991 10.0345 9.7172 9.71719C10.0345 9.39987 10.5489 9.39985 10.8662 9.71714L13.0002 11.8509L16.7589 8.09216C17.0762 7.77486 17.5906 7.77486 17.9079 8.09216Z" fill="#334BEB"/>
</svg>
