<svg width="26" height="26" viewBox="0 0 26 26" fill="none" xmlns="http://www.w3.org/2000/svg">
<path d="M16.25 16.25C16.25 17.1474 16.9776 17.875 17.875 17.875C18.7724 17.875 19.5 17.1474 19.5 16.25C19.5 15.3526 18.7724 14.625 17.875 14.625C16.9776 14.625 16.25 15.3526 16.25 16.25Z" stroke="#334BEB" stroke-width="1.625"/>
<path d="M16.2541 8.4528C10.3742 8.04536 5.53009 7.17286 3.25 6.49976V16.3163C3.25 18.4769 3.25 19.5572 3.92121 20.4383C4.59242 21.3194 5.51333 21.5682 7.35515 22.0659C10.3309 22.8699 13.4588 23.3488 16.2615 23.6226C19.1662 23.9065 20.6185 24.0484 21.6843 23.0745C22.75 22.1006 22.75 20.5361 22.75 17.407V15.2256C22.75 12.187 22.75 10.6677 21.8756 9.72471C21.0014 8.78175 19.419 8.6721 16.2541 8.4528Z" stroke="#334BEB" stroke-width="1.625" stroke-linecap="round" stroke-linejoin="round"/>
<path d="M19.0946 8.66669C19.5038 7.12481 19.8741 4.32059 18.7709 2.92818C18.0717 2.04564 17.0325 2.13044 16.0136 2.22005C10.6577 2.69108 6.87423 3.64794 4.75909 4.298C3.8496 4.57753 3.25 5.46567 3.25 6.45716" stroke="#334BEB" stroke-width="1.625" stroke-linejoin="round"/>
</svg>
